<svg id="Layer_1" data-name="Layer 1" xmlns="http://www.w3.org/2000/svg" viewBox="0 0 512 512"><defs><style>.cls-1{fill:#141f38;}.cls-2{fill:#ff5f6e;}.cls-3{fill:#d1e1e8;}</style></defs><title>satellite-antenna-filled</title><path class="cls-1" d="M223.18,216.61a6.56,6.56,0,0,1-4.64-11.21l53.63-53.63a6.56,6.56,0,1,1,9.28,9.28l-53.63,53.63A6.54,6.54,0,0,1,223.18,216.61Z"/><path class="cls-1" d="M187.34,180.78a6.57,6.57,0,0,1-2.1-12.79l83.17-28a6.56,6.56,0,1,1,4.19,12.44l-83.17,28A6.56,6.56,0,0,1,187.34,180.78Z"/><path class="cls-1" d="M259.35,252.78a6.49,6.49,0,0,1-2.07-.34,6.56,6.56,0,0,1-4.16-8.3l27.77-83.49a6.56,6.56,0,1,1,12.46,4.14l-27.77,83.49A6.57,6.57,0,0,1,259.35,252.78Z"/><path class="cls-1" d="M439.79,112.71a6.56,6.56,0,0,1-6.31-4.78,138.52,138.52,0,0,0-95-95A6.56,6.56,0,1,1,342,.24,151.71,151.71,0,0,1,446.11,104.35a6.57,6.57,0,0,1-6.32,8.35Z"/><path class="cls-1" d="M383.88,112.7a6.56,6.56,0,0,1-5.94-3.75,85.54,85.54,0,0,0-40.54-40.53A6.56,6.56,0,1,1,343,56.56a98.72,98.72,0,0,1,46.77,46.77,6.56,6.56,0,0,1-5.92,9.38Z"/><circle class="cls-2" cx="295.39" cy="137.84" r="26.26"/><path class="cls-1" d="M295.39,170.67a32.82,32.82,0,1,1,32.82-32.82A32.86,32.86,0,0,1,295.39,170.67Zm0-52.51a19.69,19.69,0,1,0,19.69,19.69A19.71,19.71,0,0,0,295.39,118.15Z"/><path class="cls-3" d="M82.41,114.5A197.75,197.75,0,0,0,73,195.34c8.39,93.87,84.14,169.62,178,178a197.75,197.75,0,0,0,80.83-9.4c15.57-5.23,20.07-25.15,8.46-36.76L119.18,106C107.56,94.43,87.64,98.94,82.41,114.5Z"/><path class="cls-1" d="M269.23,380.72q-9.35,0-18.79-.84c-96.27-8.61-175.35-87.69-184-184a203.66,203.66,0,0,1,9.71-83.51A28.39,28.39,0,0,1,96.77,93.72a28.73,28.73,0,0,1,27,7.68L345,322.54a28.71,28.71,0,0,1,7.68,27,28.39,28.39,0,0,1-18.69,20.58A202.37,202.37,0,0,1,269.23,380.72ZM103.44,106.08a15.93,15.93,0,0,0-3.67.43,15.16,15.16,0,0,0-11.14,10.09h0a190.66,190.66,0,0,0-9.08,78.16c8,90,82,164,172,172a190.55,190.55,0,0,0,78.16-9.08,15.16,15.16,0,0,0,10.09-11.14,15.67,15.67,0,0,0-4.18-14.76L114.53,110.68A15.64,15.64,0,0,0,103.44,106.08Z"/><circle class="cls-3" cx="158.14" cy="353.86" r="32.22"/><path class="cls-1" d="M158.14,392.65a38.79,38.79,0,1,1,38.79-38.79A38.83,38.83,0,0,1,158.14,392.65Zm0-64.45a25.66,25.66,0,1,0,25.66,25.66A25.69,25.69,0,0,0,158.14,328.2Z"/><path class="cls-3" d="M238.06,460.1l-55-80.22a30.13,30.13,0,0,0-2.41-3,31.93,31.93,0,0,1-43.86,1,29.2,29.2,0,0,0-4.59,7.83l-31.41,80.22a29,29,0,0,0,27,39.52h86.39C237.47,505.44,251.23,479.32,238.06,460.1Z"/><path class="cls-1" d="M214.17,512H127.78A35.53,35.53,0,0,1,94.7,463.52l31.41-80.22a35.94,35.94,0,0,1,5.62-9.58l4.33-5.32,5.13,4.55a26,26,0,0,0,34.9-.79l4.91-4.82,4.58,5.14a37.29,37.29,0,0,1,2.92,3.69l55,80.22A35.53,35.53,0,0,1,214.17,512Zm-75.5-124.71c-.12.26-.22.53-.33.79l-31.41,80.22a22.4,22.4,0,0,0,20.86,30.56h86.39a22.4,22.4,0,0,0,18.48-35.06l-53.16-77.58A39.14,39.14,0,0,1,138.67,387.29Z"/></svg>