<svg xmlns="http://www.w3.org/2000/svg" viewBox="0 0 90 90"><title>wireless-tower</title><g id="wireless-tower-flat"><g id="wireless-tower"><circle id="label" cx="45" cy="45" r="45" fill="#acaf48"/><g id="shadow"><path d="M89.73,49l-.15-.16,0,0-.15-.16,0,0-.15-.16,0,0L89,48.33l0,0-.15-.16,0,0L88.68,48l0,0-.15-.16,0,0-.15-.16,0,0-.15-.16,0,0L88,47.25l0,0-.15-.16,0,0-.15-.16,0,0-.15-.16,0,0-.15-.16,0,0-.15-.16,0,0-.15-.16,0,0L86.71,46l0,0-.15-.16,0,0-.15-.16,0,0-.15-.16,0,0L86,45.28l0,0-.15-.16,0,0-.15-.16,0,0-.15-.16,0,0-.15-.16,0,0-.15-.16,0,0-.15-.16,0,0L84.74,44l0,0-.15-.16,0,0-.15-.16,0,0-.15-.16,0,0L84,43.31l0,0-.15-.16,0,0L83.66,43l0,0-.15-.16,0,0-.15-.16,0,0-.15-.16,0,0-.15-.16,0,0-.15-.16,0,0-.15-.16,0,0-.15-.16,0,0-.15-.16,0,0L82,41.34l0,0-.15-.16,0,0L81.69,41l0,0-.15-.16,0,0-.15-.16,0,0-.15-.16,0,0L81,40.26l0,0-.15-.16,0,0-.15-.16,0,0-.15-.16,0,0-.15-.16,0,0-.15-.16,0,0-.15-.16,0,0L79.72,39l0,0-.15-.16,0,0-.15-.16,0,0-.15-.16,0,0L79,38.29l0,0-.15-.16,0,0-.15-.16,0,0-.15-.16,0,0-.15-.16,0,0-.15-.16,0,0-.15-.16,0,0L77.75,37l0,0-.15-.16,0,0-.15-.16,0,0-.15-.16,0,0L77,36.32l0,0-.15-.16,0,0L76.67,36l0,0-.15-.16,0,0-.15-.16,0,0-.15-.16,0,0L76,35.24l0,0-.15-.16,0,0-.15-.16,0,0-.15-.16,0,0-.15-.16,0,0-.15-.16,0,0-.15-.16,0,0L74.7,34l0,0-.15-.16,0,0-.15-.16,0,0-.15-.16,0,0L74,33.27l0,0-.15-.16,0,0-.15-.16,0,0-.15-.16,0,0-.15-.16,0,0-.15-.16,0,0-.15-.16,0,0L72.73,32l0,0-.15-.16,0,0-.15-.16,0,0-.15-.16,0,0L72,31.3l0,0-.15-.16,0,0-.15-.16,0,0-.15-.16,0,0-.15-.16,0,0-.15-.16,0,0-.15-.16,0,0L70.75,30l0,0-.15-.16,0,0-.15-.16,0,0-.15-.16,0,0L70,29.32l0,0-.15-.16,0,0L69.68,29l0,0-.15-.16,0,0-.15-.16,0,0-.15-.16,0,0L69,28.25l0,0-.15-.16,0,0-.15-.16,0,0-.15-.16,0,0-.15-.16,0,0-.15-.16,0,0-.15-.16,0,0L67.71,27l0,0-.15-.16,0,0-.15-.16,0,0-.15-.16,0,0L67,26.28l0,0-.15-.16,0,0-.15-.16,0,0-.15-.16,0,0-.15-.16,0,0-.15-.16,0,0-.15-.16,0,0L65.73,25l0,0-.15-.16,0,0-.15-.16,0,0-.15-.16,0,0L65,24.3l0,0-.15-.16,0,0-.15-.16,0,0-.15-.16,0,0-.15-.16,0,0-.15-.16,0,0-.15-.16,0,0L63.76,23l0,0-.15-.16,0,0-.15-.16,0,0-.15-.16,0,0L63,22.33l0,0-.15-.16,0,0L62.69,22l0,0-.15-.16,0,0-.15-.16,0,0-.15-.16,0,0L62,21.26a.87.87,0,0,0-1.23,0,.88.88,0,0,0,0,1.24A22.24,22.24,0,0,1,67,34.81l-.11-.12,0,0-.14-.15,0,0-.14-.15,0,0-.14-.15,0,0L66.13,34l0,0-.14-.15,0,0-.14-.15,0,0-.14-.15,0,0-.14-.15,0,0-.14-.15,0,0-.14-.15,0,0-.14-.15,0,0-.14-.15,0,0-.14-.15,0,0-.14-.15,0,0L64.16,32l0,0L64,31.82l0,0-.14-.15,0,0-.14-.15,0,0-.14-.15,0,0-.14-.15,0,0-.14-.15,0,0-.14-.15,0,0-.14-.15,0,0-.14-.15,0,0-.14-.15,0,0L62.18,30l0,0L62,29.85l0,0-.14-.15,0,0-.14-.15,0,0-.14-.15,0,0-.14-.15,0,0L61.11,29l0,0-.14-.15,0,0-.14-.15,0,0-.14-.15,0,0-.14-.15,0,0-.14-.15,0,0L60,27.88l0,0-.14-.15,0,0-.14-.15,0,0-.14-.15,0,0-.14-.15,0,0L59.14,27l0,0L59,26.8l0,0-.14-.15,0,0-.14-.15,0,0-.14-.15,0,0-.14-.15,0,0-.14-.15,0,0-.14-.15,0,0-.14-.15a.87.87,0,0,0-1.23,0,.88.88,0,0,0,0,1.24,16.2,16.2,0,0,1,4.71,10.8l0,0,0,0L61,37.36l0,0-.14-.15,0,0L60.61,37l0,0-.14-.15,0,0-.14-.15,0,0-.14-.15,0,0-.14-.15,0,0-.14-.15,0,0-.14-.15,0,0-.14-.15,0,0-.14-.15,0,0L59,35.39l0,0-.14-.15,0,0L58.64,35l0,0-.14-.15,0,0-.14-.15,0,0-.14-.15,0,0-.14-.15,0,0-.14-.15,0,0L57.56,34l0,0-.14-.15,0,0-.14-.15,0,0L57,33.42l0,0-.14-.15,0,0-.14-.15,0,0-.14-.15,0,0-.14-.15,0,0-.14-.15,0,0-.14-.15,0,0-.14-.15,0,0L55.59,32l0,0-.14-.15,0,0-.14-.15,0,0-.14-.15,0,0-.14-.15,0,0-.14-.15,0,0-.14-.15,0,0-.14-.15,0,0-.14-.15,0,0L54,30.37l0,0-.14-.15,0,0L53.62,30l0,0-.14-.15a.87.87,0,0,0-1.23,0,.88.88,0,0,0,0,1.24,10.25,10.25,0,0,1,2.39,10.67l-.14-.13-.18-.18-.18-.18-.18-.18-.18-.18-.18-.18-.18-.18-.18-.18L53,40.18,52.84,40l-.18-.18-.18-.18-.18-.18-.18-.18-.18-.18-.18-.18-.18-.18-.18-.18-.18-.18L51,38.2,50.87,38l-.18-.18-.18-.18-.18-.18-.18-.18L50,37.13l-.18-.18-.18-.18-.18-.18-.18-.18-.18-.18-.18-.18-.18-.18-.18-.18-.18-.18-.18-.18L48,35.16,47.82,35a3.93,3.93,0,0,0-5.3-.46l-.1-.07a.83.83,0,0,0-.07-.11.33.33,0,0,1-.18-.18A.33.33,0,0,1,42,34a.33.33,0,0,1-.18-.18.33.33,0,0,1-.18-.18.33.33,0,0,1-.18-.18.33.33,0,0,1-.18-.18.33.33,0,0,1-.18-.18.33.33,0,0,1-.18-.18.33.33,0,0,1-.18-.18.33.33,0,0,1-.18-.18.33.33,0,0,1-.18-.18.33.33,0,0,1-.18-.18A.33.33,0,0,1,40,32a.33.33,0,0,1-.18-.18.33.33,0,0,1-.18-.18.33.33,0,0,1-.18-.18.33.33,0,0,1-.18-.18.33.33,0,0,1-.18-.18.33.33,0,0,1-.18-.18.33.33,0,0,1-.18-.18.82.82,0,0,0-.11-.07.83.83,0,0,0-.07-.11.82.82,0,0,0-.11-.07.83.83,0,0,0-.07-.11.82.82,0,0,0-.11-.07A1,1,0,0,1,38,30a.82.82,0,0,0-.11-.07,1,1,0,0,1-.25-.29.82.82,0,0,0-.11-.07.83.83,0,0,0-.07-.11.82.82,0,0,0-.11-.07,1,1,0,0,1-.25-.29.82.82,0,0,0-.11-.07A.83.83,0,0,0,37,29a.82.82,0,0,0-.11-.07,1,1,0,0,1-.25-.29.82.82,0,0,0-.11-.07,1,1,0,0,1-.25-.29.82.82,0,0,0-.11-.07.83.83,0,0,0-.07-.11A.82.82,0,0,0,36,28a1,1,0,0,1-.25-.29.82.82,0,0,0-.11-.07.83.83,0,0,0-.07-.11.82.82,0,0,0-.11-.07,1,1,0,0,1-.25-.29.82.82,0,0,0-.11-.07,1,1,0,0,1-.25-.29.82.82,0,0,0-.11-.07.83.83,0,0,0-.07-.11.82.82,0,0,0-.11-.07,1,1,0,0,1-.25-.29.82.82,0,0,0-.11-.07.83.83,0,0,0-.07-.11A.82.82,0,0,0,34,26a1,1,0,0,1-.25-.29.82.82,0,0,0-.11-.07.83.83,0,0,0-.07-.11.82.82,0,0,0-.11-.07,1,1,0,0,1-.25-.29.82.82,0,0,0-.11-.07,1,1,0,0,1-.25-.29.82.82,0,0,0-.11-.07.83.83,0,0,0-.07-.11.82.82,0,0,0-.11-.07,1,1,0,0,1-.25-.29.82.82,0,0,0-.11-.07.83.83,0,0,0-.07-.11.82.82,0,0,0-.11-.07,1,1,0,0,1-.25-.29.82.82,0,0,0-.11-.07,1,1,0,0,1-.25-.29.82.82,0,0,0-.11-.07.83.83,0,0,0-.07-.11.82.82,0,0,0-.11-.07,1,1,0,0,1-.25-.29.82.82,0,0,0-.11-.07.83.83,0,0,0-.07-.11.82.82,0,0,0-.11-.07,1,1,0,0,1-.25-.29.82.82,0,0,0-.11-.07A1,1,0,0,1,30,22a.82.82,0,0,0-.11-.07.83.83,0,0,0-.07-.11.82.82,0,0,0-.11-.07,1,1,0,0,1-.25-.29.82.82,0,0,0-.11-.07.83.83,0,0,0-.07-.11.87.87,0,0,0-1.23,0,24.21,24.21,0,0,0,0,34.12l0,0,.15.16,0,0,.15.16,0,0,.15.16,0,0,.15.16,0,0,.15.16,0,0,.15.16,0,0,.15.16,0,0,.15.16,0,0,.15.16,0,0,.15.16,0,0,.15.16,0,0,.15.16,0,0,.15.16,0,0,.15.16,0,0,.15.16,0,0,.15.16,0,0,.15.16,0,0,.15.16,0,0,.15.16,0,0,.15.16,0,0,.15.16,0,0,.15.16,0,0,.15.16,0,0,.15.16,0,0,.15.16,0,0,.15.16,0,0,.15.16,0,0,.15.16,0,0,.15.16,0,0,.15.16,0,0,.15.16,0,0,.15.16,0,0,.15.16,0,0,.15.16,0,0,.15.16,0,0,.15.16,0,0,.15.16,0,0,.15.16,0,0,.15.16,0,0,.15.16,0,0,.15.16,0,0,.15.16,0,0,.15.16,0,0,.15.16,0,0,.15.16,0,0,.15.16,0,0,.15.16,0,0,.15.16,0,0,.15.16,0,0,.15.16h0l-1,3.54a.87.87,0,0,0,.35.95,1490.14,1490.14,0,0,1,.36.36,4469.45,4469.45,0,0,0,.54.54,1490.14,1490.14,0,0,1,.36.36,27283865.51,27283865.51,0,0,0,.54.54,4470.18,4470.18,0,0,0,.54.54,1489.89,1489.89,0,0,1,.36.36,9087383.2,9087383.2,0,0,1,.54.54,4468,4468,0,0,0,.54.54,1489.4,1489.4,0,0,1,.36.36,13625649.22,13625649.22,0,0,0,.54.54,27283823.79,27283823.79,0,0,0,.54.54,4470.18,4470.18,0,0,0,.54.54,1489.89,1489.89,0,0,1,.36.36,9087378.57,9087378.57,0,0,1,.54.54,4468,4468,0,0,0,.54.54,1489.4,1489.4,0,0,1,.36.36,13625659.62,13625659.62,0,0,0,.54.54,4469.45,4469.45,0,0,0,.54.54,1490.14,1490.14,0,0,1,.36.36,27283851.6,27283851.6,0,0,0,.54.54,9087386.29,9087386.29,0,0,1,.54.54,4469.45,4469.45,0,0,0,.54.54,1489.16,1489.16,0,0,1,.36.36,13625677,13625677,0,0,0,.54.54,4469.45,4469.45,0,0,0,.54.54,1490.14,1490.14,0,0,1,.36.36,27283796,27283796,0,0,0,.54.54,4470.18,4470.18,0,0,0,.54.54,1489.89,1489.89,0,0,1,.36.36,9087387.83,9087387.83,0,0,1,.54.54,4469.45,4469.45,0,0,0,.54.54,9088933.86,9088933.86,0,0,1,.36.36,4471.39,4471.39,0,0,1,.54.54,27283851.6,27283851.6,0,0,0,.54.54,4470.18,4470.18,0,0,0,.54.54,1489.89,1489.89,0,0,1,.36.36,9087397.09,9087397.09,0,0,1,.54.54,2235,2235,0,0,0,.72.72,1490.14,1490.14,0,0,1,.36.36,1490.14,1490.14,0,0,1,.36.36,4469.45,4469.45,0,0,0,.54.54l.05.05A45,45,0,0,0,89.81,49.1l0-.05Z" fill="#9ea142"/></g><g id="wireless-tower-2" data-name="wireless-tower"><path d="M22.75,38.31A22.28,22.28,0,0,1,29.26,22.5a.88.88,0,0,0,0-1.24.87.87,0,0,0-1.23,0,24.21,24.21,0,0,0,0,34.12.87.87,0,0,0,1.23,0,.88.88,0,0,0,0-1.24A22.29,22.29,0,0,1,22.75,38.31Z" fill="#ffca28"/><path d="M62,21.26a.87.87,0,0,0-1.23,0,.88.88,0,0,0,0,1.24,22.45,22.45,0,0,1,0,31.64.88.88,0,0,0,0,1.24.87.87,0,0,0,1.23,0,24.21,24.21,0,0,0,0-34.12Z" fill="#ffca28"/><path d="M28.78,38.31a16.23,16.23,0,0,1,4.75-11.53.88.88,0,0,0,0-1.24.87.87,0,0,0-1.23,0,18.12,18.12,0,0,0,0,25.54.87.87,0,0,0,1.23,0,.88.88,0,0,0,0-1.24A16.22,16.22,0,0,1,28.78,38.31Z" fill="#ffca28"/><path d="M57.7,25.54a.87.87,0,0,0-1.23,0,.88.88,0,0,0,0,1.24,16.36,16.36,0,0,1,0,23.05.88.88,0,0,0,0,1.24.87.87,0,0,0,1.23,0,18.12,18.12,0,0,0,0-25.54Z" fill="#ffca28"/><path d="M37.8,29.83a.87.87,0,0,0-1.23,0,12,12,0,0,0,0,17,.87.87,0,0,0,1.23,0,.88.88,0,0,0,0-1.24,10.27,10.27,0,0,1,0-14.48A.88.88,0,0,0,37.8,29.83Z" fill="#ffca28"/><path d="M53.44,29.83a.87.87,0,0,0-1.23,0,.88.88,0,0,0,0,1.24,10.28,10.28,0,0,1,0,14.48.88.88,0,0,0,0,1.24.87.87,0,0,0,1.23,0,12,12,0,0,0,0-17Z" fill="#ffca28"/><path d="M53.14,69a.87.87,0,0,1-.84-.64L45,42.07,37.7,68.36A.87.87,0,1,1,36,67.89l9-32.34,9,32.34A.88.88,0,0,1,53.38,69a.85.85,0,0,1-.24,0Z" fill="#fff"/><path d="M37.84,67.25a.88.88,0,0,1-.36-1.68l12.14-5.52a.87.87,0,0,1,1.15.44.88.88,0,0,1-.44,1.16L38.2,67.17a.88.88,0,0,1-.36.08Z" fill="#fff"/><path d="M52.16,67.25a.88.88,0,0,1-.34-.07L39.66,62a.88.88,0,0,1,.68-1.61L52.5,65.56a.88.88,0,0,1-.34,1.69Z" fill="#fff"/><path d="M39,61.18a.88.88,0,0,1-.4-1.66l10.45-5.36a.87.87,0,0,1,1.17.38.88.88,0,0,1-.38,1.18L39.42,61.08a.87.87,0,0,1-.4.1Z" fill="#fff"/><path d="M50.79,60.52a.89.89,0,0,1-.34-.07L40.28,56.11A.88.88,0,0,1,41,54.5l10.16,4.34a.88.88,0,0,1-.34,1.69Z" fill="#fff"/><ellipse cx="44.91" cy="37.72" rx="4" ry="4.02" fill="#d3d658"/></g></g></g></svg>